<svg width="668" height="200" viewBox="0 0 668 200" fill="none" xmlns="http://www.w3.org/2000/svg">
<path d="M611.562 143.76C609.802 144.8 607.362 145.32 604.242 145.32C601.602 145.32 599.482 144.6 597.882 143.16C596.362 141.64 595.602 139.2 595.602 135.84C592.802 139.2 589.522 141.64 585.762 143.16C582.082 144.6 578.082 145.32 573.762 145.32C570.962 145.32 568.282 145 565.722 144.36C563.242 143.72 561.082 142.72 559.242 141.36C557.402 140 555.922 138.24 554.802 136.08C553.762 133.84 553.242 131.16 553.242 128.04C553.242 124.52 553.842 121.64 555.042 119.4C556.242 117.16 557.802 115.36 559.722 114C561.722 112.56 563.962 111.48 566.442 110.76C569.002 110.04 571.602 109.44 574.242 108.96C577.042 108.4 579.682 108 582.162 107.76C584.722 107.44 586.962 107.04 588.882 106.56C590.802 106 592.322 105.24 593.442 104.28C594.562 103.24 595.122 101.76 595.122 99.84C595.122 97.6 594.682 95.8 593.802 94.44C593.002 93.08 591.922 92.04 590.562 91.32C589.282 90.6 587.802 90.12 586.122 89.88C584.522 89.64 582.922 89.52 581.322 89.52C577.002 89.52 573.402 90.36 570.522 92.04C567.642 93.64 566.082 96.72 565.842 101.28H555.642C555.802 97.44 556.602 94.2 558.042 91.56C559.482 88.92 561.402 86.8 563.802 85.2C566.202 83.52 568.922 82.32 571.962 81.6C575.082 80.88 578.402 80.52 581.922 80.52C584.722 80.52 587.482 80.72 590.202 81.12C593.002 81.52 595.522 82.36 597.762 83.64C600.002 84.84 601.802 86.56 603.162 88.8C604.522 91.04 605.202 93.96 605.202 97.56V129.48C605.202 131.88 605.322 133.64 605.562 134.76C605.882 135.88 606.842 136.44 608.442 136.44C609.322 136.44 610.362 136.24 611.562 135.84V143.76ZM595.002 111.96C593.722 112.92 592.042 113.64 589.962 114.12C587.882 114.52 585.682 114.88 583.362 115.2C581.122 115.44 578.842 115.76 576.522 116.16C574.202 116.48 572.122 117.04 570.282 117.84C568.442 118.64 566.922 119.8 565.722 121.32C564.602 122.76 564.042 124.76 564.042 127.32C564.042 129 564.362 130.44 565.002 131.64C565.722 132.76 566.602 133.68 567.642 134.4C568.762 135.12 570.042 135.64 571.482 135.96C572.922 136.28 574.442 136.44 576.042 136.44C579.402 136.44 582.282 136 584.682 135.12C587.082 134.16 589.042 133 590.562 131.64C592.082 130.2 593.202 128.68 593.922 127.08C594.642 125.4 595.002 123.84 595.002 122.4V111.96Z" fill="black"/>
<path d="M516.281 81.9599H525.881V95.0399H526.121C528.601 89.9999 531.641 86.2799 535.241 83.8799C538.841 81.4799 543.401 80.3599 548.921 80.5199V91.3199C544.841 91.3199 541.361 91.8799 538.481 92.9999C535.601 94.1199 533.281 95.7599 531.521 97.9199C529.761 100.08 528.481 102.72 527.681 105.84C526.881 108.88 526.481 112.4 526.481 116.4V144H516.281V81.9599Z" fill="black"/>
<path d="M492.949 81.9599H505.309V90.9599H492.949V129.48C492.949 130.68 493.029 131.64 493.189 132.36C493.429 133.08 493.829 133.64 494.389 134.04C494.949 134.44 495.709 134.72 496.669 134.88C497.709 134.96 499.029 135 500.629 135H505.309V144H497.509C494.869 144 492.589 143.84 490.669 143.52C488.829 143.12 487.309 142.44 486.109 141.48C484.989 140.52 484.149 139.16 483.589 137.4C483.029 135.64 482.749 133.32 482.749 130.44V90.9599H472.189V81.9599H482.749V63.3599H492.949V81.9599Z" fill="black"/>
<path d="M457.416 107.04C457.256 104.64 456.696 102.36 455.736 100.2C454.856 98.04 453.616 96.2 452.016 94.68C450.496 93.08 448.656 91.84 446.496 90.96C444.416 90 442.096 89.52 439.536 89.52C436.896 89.52 434.496 90 432.336 90.96C430.256 91.84 428.456 93.08 426.936 94.68C425.416 96.28 424.216 98.16 423.336 100.32C422.456 102.4 421.936 104.64 421.776 107.04H457.416ZM467.256 124.32C465.896 131.28 462.896 136.52 458.256 140.04C453.616 143.56 447.776 145.32 440.736 145.32C435.776 145.32 431.456 144.52 427.776 142.92C424.176 141.32 421.136 139.08 418.656 136.2C416.176 133.32 414.296 129.88 413.016 125.88C411.816 121.88 411.136 117.52 410.976 112.8C410.976 108.08 411.696 103.76 413.136 99.84C414.576 95.92 416.576 92.52 419.136 89.64C421.776 86.76 424.856 84.52 428.376 82.92C431.976 81.32 435.896 80.52 440.136 80.52C445.656 80.52 450.216 81.68 453.816 84C457.496 86.24 460.416 89.12 462.576 92.64C464.816 96.16 466.336 100 467.136 104.16C468.016 108.32 468.376 112.28 468.216 116.04H421.776C421.696 118.76 422.016 121.36 422.736 123.84C423.456 126.24 424.616 128.4 426.216 130.32C427.816 132.16 429.856 133.64 432.336 134.76C434.816 135.88 437.736 136.44 441.096 136.44C445.416 136.44 448.936 135.44 451.656 133.44C454.456 131.44 456.296 128.4 457.176 124.32H467.256Z" fill="black"/>
<path d="M382.296 144H371.376L348.336 81.96H359.736L377.136 133.68H377.376L394.296 81.96H404.976L382.296 144Z" fill="black"/>
<path d="M328.335 58.3198H338.535V144H328.335V58.3198Z" fill="black"/>
<path d="M306.362 107.04C306.202 104.64 305.642 102.36 304.682 100.2C303.802 98.04 302.562 96.2 300.962 94.68C299.442 93.08 297.602 91.84 295.442 90.96C293.362 90 291.042 89.52 288.482 89.52C285.842 89.52 283.442 90 281.282 90.96C279.202 91.84 277.402 93.08 275.882 94.68C274.362 96.28 273.162 98.16 272.282 100.32C271.402 102.4 270.882 104.64 270.722 107.04H306.362ZM316.202 124.32C314.842 131.28 311.842 136.52 307.202 140.04C302.562 143.56 296.722 145.32 289.682 145.32C284.722 145.32 280.402 144.52 276.722 142.92C273.122 141.32 270.082 139.08 267.602 136.2C265.122 133.32 263.242 129.88 261.962 125.88C260.762 121.88 260.082 117.52 259.922 112.8C259.922 108.08 260.642 103.76 262.082 99.84C263.522 95.92 265.522 92.52 268.082 89.64C270.722 86.76 273.802 84.52 277.322 82.92C280.922 81.32 284.842 80.52 289.082 80.52C294.602 80.52 299.162 81.68 302.762 84C306.442 86.24 309.362 89.12 311.522 92.64C313.762 96.16 315.282 100 316.082 104.16C316.962 108.32 317.322 112.28 317.162 116.04H270.722C270.642 118.76 270.962 121.36 271.682 123.84C272.402 126.24 273.562 128.4 275.162 130.32C276.762 132.16 278.802 133.64 281.282 134.76C283.762 135.88 286.682 136.44 290.042 136.44C294.362 136.44 297.882 135.44 300.602 133.44C303.402 131.44 305.242 128.4 306.122 124.32H316.202Z" fill="black"/>
<path d="M178.36 58.3198H189.76V95.1598H234.88V58.3198H246.28V144H234.88V104.76H189.76V144H178.36V58.3198Z" fill="black"/>
<path d="M70.888 29.0002L70.888 64.931L107.171 64.931L107.171 29.0002L143.059 29.0002L143.059 82.0591L35 82.0591L35.0003 29.0002L70.888 29.0002Z" fill="#DA291C"/>
<path d="M107.171 171L107.171 135.07L70.8881 135.07L70.8881 171L35.0003 171L35.0005 117.941L143.059 117.941L143.059 171L107.171 171Z" fill="#DA291C"/>
</svg>
